<?xml version="1.0" encoding="UTF-8"?>
<svg xmlns="http://www.w3.org/2000/svg" xmlns:xlink="http://www.w3.org/1999/xlink" width="48px" height="64px" viewBox="0 0 48 64" version="1.1">
<g id="surface1">
<path style=" stroke:none;fill-rule:nonzero;fill:rgb(0%,0%,0%);fill-opacity:1;" d="M 21.535156 62.707031 C 3.371094 36.378906 0 33.675781 0 24 C 0 10.746094 10.746094 0 24 0 C 37.253906 0 48 10.746094 48 24 C 48 33.675781 44.628906 36.378906 26.464844 62.707031 C 25.273438 64.429688 22.726562 64.429688 21.535156 62.707031 Z M 24 34 C 29.523438 34 34 29.523438 34 24 C 34 18.476562 29.523438 14 24 14 C 18.476562 14 14 18.476562 14 24 C 14 29.523438 18.476562 34 24 34 Z M 24 34 "/>
</g>
</svg>
