<?xml version="1.0" encoding="UTF-8"?>
<svg xmlns="http://www.w3.org/2000/svg" xmlns:xlink="http://www.w3.org/1999/xlink" width="48px" height="64px" viewBox="0 0 48 64" version="1.1">
<g id="surface1">
<path style=" stroke:none;fill-rule:nonzero;fill:rgb(0%,0%,0%);fill-opacity:1;" d="M 12.167969 63.371094 C -4.066406 47.136719 -4.042969 20.839844 12.167969 4.628906 C 12.878906 3.917969 13.984375 3.800781 14.824219 4.328125 L 22.925781 9.390625 C 23.808594 9.941406 24.167969 11.042969 23.78125 12.011719 L 19.730469 22.136719 C 19.375 23.027344 18.476562 23.574219 17.523438 23.476562 L 10.546875 22.78125 C 7.914062 30.0625 7.96875 38.089844 10.546875 45.21875 L 17.523438 44.523438 C 18.476562 44.425781 19.375 44.972656 19.730469 45.863281 L 23.78125 55.988281 C 24.167969 56.953125 23.808594 58.058594 22.925781 58.609375 L 14.824219 63.671875 C 13.976562 64.203125 12.875 64.078125 12.167969 63.371094 Z M 30.890625 11.933594 C 32.371094 14.441406 32.371094 17.558594 30.890625 20.066406 C 30.398438 20.902344 29.253906 21.0625 28.550781 20.386719 L 27.804688 19.671875 C 27.316406 19.203125 27.203125 18.46875 27.523438 17.871094 C 28.140625 16.699219 28.140625 15.300781 27.523438 14.128906 C 27.203125 13.53125 27.316406 12.796875 27.804688 12.328125 L 28.550781 11.613281 C 29.253906 10.9375 30.398438 11.097656 30.890625 11.933594 Z M 42.363281 0.535156 C 49.882812 9.484375 49.875 22.519531 42.363281 31.464844 C 41.804688 32.128906 40.796875 32.183594 40.171875 31.582031 L 39.445312 30.886719 C 38.875 30.339844 38.824219 29.445312 39.328125 28.839844 C 45.539062 21.398438 45.535156 10.597656 39.328125 3.160156 C 38.824219 2.554688 38.875 1.660156 39.445312 1.113281 L 40.171875 0.417969 C 40.796875 -0.183594 41.804688 -0.128906 42.363281 0.535156 Z M 36.617188 6.152344 C 41.125 11.945312 41.132812 20.046875 36.617188 25.847656 C 36.070312 26.550781 35.03125 26.628906 34.386719 26.007812 L 33.660156 25.3125 C 33.109375 24.785156 33.035156 23.925781 33.496094 23.320312 C 36.816406 19 36.816406 13 33.496094 8.679688 C 33.035156 8.074219 33.109375 7.214844 33.660156 6.6875 L 34.386719 5.992188 C 35.03125 5.371094 36.070312 5.449219 36.617188 6.152344 Z M 36.617188 6.152344 "/>
</g>
</svg>
