<?xml version="1.0" encoding="UTF-8"?>
<svg xmlns="http://www.w3.org/2000/svg" xmlns:xlink="http://www.w3.org/1999/xlink" width="56px" height="64px" viewBox="0 0 56 64" version="1.1">
<g id="surface1">
<path style=" stroke:none;fill-rule:nonzero;fill:rgb(0%,0%,0%);fill-opacity:1;" d="M 53.085938 37.476562 C 53.449219 35.726562 53.675781 33.863281 53.675781 32 C 53.675781 17.8125 42.1875 6.335938 28.011719 6.335938 C 26.148438 6.335938 24.300781 6.550781 22.539062 6.925781 C 20.164062 5.085938 17.210938 4 14 4 C 6.273438 4 0 10.273438 0 18 C 0 21.210938 1.085938 24.164062 2.914062 26.523438 C 2.550781 28.273438 2.324219 30.136719 2.324219 32 C 2.324219 46.1875 13.8125 57.664062 27.988281 57.664062 C 29.851562 57.664062 31.699219 57.449219 33.460938 57.074219 C 35.835938 58.898438 38.789062 59.988281 41.988281 59.988281 C 49.710938 59.988281 55.988281 53.710938 55.988281 45.988281 C 56 42.789062 54.914062 39.835938 53.085938 37.476562 Z M 28.761719 48.914062 C 20.5625 48.914062 13.699219 45.261719 13.699219 40.789062 C 13.699219 38.789062 14.824219 36.960938 17.386719 36.960938 C 21.289062 36.960938 21.648438 42.574219 28.398438 42.574219 C 31.613281 42.574219 33.6875 41.148438 33.6875 39.289062 C 33.6875 36.949219 31.6875 36.585938 28.4375 35.789062 C 20.625 33.863281 13.710938 33.039062 13.710938 24.886719 C 13.710938 17.488281 21.039062 14.75 27.351562 14.75 C 34.238281 14.75 41.199219 17.488281 41.199219 21.675781 C 41.199219 23.789062 39.773438 25.648438 37.414062 25.648438 C 33.875 25.648438 33.761719 21.460938 28.039062 21.460938 C 24.824219 21.460938 22.789062 22.335938 22.789062 24.273438 C 22.789062 26.75 25.386719 27 31.425781 28.398438 C 36.601562 29.5625 42.761719 31.75 42.761719 38.101562 C 42.761719 45.488281 35.625 48.914062 28.761719 48.914062 Z M 28.761719 48.914062 "/>
</g>
</svg>
